<?xml version="1.0" encoding="iso-8859-1"?>
<!-- Generator: Adobe Illustrator 19.0.0, SVG Export Plug-In . SVG Version: 6.00 Build 0)  -->
<svg version="1.1" id="Capa_1" xmlns="http://www.w3.org/2000/svg" xmlns:xlink="http://www.w3.org/1999/xlink" x="0px" y="0px"
	 viewBox="0 0 480 480" style="enable-background:new 0 0 480 480;" xml:space="preserve">
<path style="fill:#5599E8;" d="M288,276H147.313l130.344-130.344c-6.248-6.248-16.377-6.248-22.625,0L133.172,267.516L97.823,161.47
	c-1.089-3.267-4.146-5.47-7.589-5.47H0v248h344c4.418,0,8-3.582,8-8v-56C352,304.654,323.346,276,288,276z"/>
<g>
	<path style="fill:#D6D6D6;" d="M352,340c0-5.536-0.776-10.877-2.098-16H296c-4.418,0-8,3.582-8,8v32c0,4.418,3.582,8,8,8h56V340z"
		/>
	<path style="fill:#D6D6D6;" d="M0,196h58.048c3.533,0,6.647,2.317,7.663,5.701l19.2,64C86.45,270.834,82.607,276,77.248,276H0V196z
		"/>
</g>
<path style="fill:#8A8A8A;" d="M330.832,68.495L328,60c0-13.255-10.745-24-24-24h0c-26.51,0-48,21.49-48,48v0
	c0,13.255,10.745,24,24,24h0l0.397,0.003c17.079,0.138,26.854,19.527,16.808,33.34L240,220l24,24l23.389-10.024
	c19.696-8.441,42.547-4.041,57.7,11.112l0,0c9.548,9.548,22.497,14.912,36,14.912h0C409.206,260,432,237.206,432,209.088v0
	c0-13.503-5.364-26.452-14.912-36L384,140h36c28.719,0,52-23.281,52-52v0c0-28.719-23.281-52-52-52h-6.521
	c-22.382,0-42.254,14.322-49.331,35.556v0C356.449,85.482,335.863,83.59,330.832,68.495z"/>
<path style="fill:#3D6DA6;" d="M32,324H0v-16h32c4.418,0,8,3.582,8,8l0,0C40,320.418,36.418,324,32,324z"/>
<g>
	<path style="fill:#5C5C5C;" d="M381.09,268c-15.738,0-30.531-6.129-41.656-17.254c-12.914-12.914-32.113-16.594-48.895-9.418
		l-23.387,10.023l-6.305-14.703l23.387-10.023c22.848-9.789,48.949-4.75,66.512,12.809C358.852,247.535,369.625,252,381.09,252
		c23.66,0,42.91-19.25,42.91-42.91c0-11.465-4.465-22.238-12.566-30.344l-33.09-33.09c-2.289-2.289-2.973-5.727-1.734-8.719
		c1.238-2.988,4.156-4.938,7.391-4.938h36c24.262,0,44-19.738,44-44s-19.738-44-44-44h-6.52c-18.969,0-35.742,12.09-41.742,30.086
		l-12.148,36.445l-15.18-5.063l12.148-36.445C364.738,44.488,387.613,28,413.48,28H420c33.086,0,60,26.914,60,60s-26.914,60-60,60
		h-16.688l19.434,19.434C433.871,178.559,440,193.352,440,209.09C440,241.574,413.574,268,381.09,268z"/>
	<path style="fill:#5C5C5C;" d="M244.801,226.398l-9.602-12.797l25.602-19.199C286.938,174.797,319.328,164,352,164v16
		c-29.234,0-58.211,9.66-81.598,27.199L244.801,226.398z"/>
	<path style="fill:#5C5C5C;" d="M312,140h-16v-8c0-8.824-7.176-16-16-16c-17.645,0-32-14.355-32-32c0-30.879,25.121-56,56-56
		c17.645,0,32,14.355,32,32v16h-16V60c0-8.824-7.176-16-16-16c-22.055,0-40,17.945-40,40c0,8.824,7.176,16,16,16
		c17.645,0,32,14.355,32,32V140z"/>
</g>
<path style="fill:#3D6DA6;" d="M352,396v-8H0v16h344C348.418,404,352,400.418,352,396z"/>
<circle style="fill:#555555;" cx="216" cy="404" r="48"/>
<path style="fill:#D6D6D6;" d="M216,412L216,412c-4.418,0-8-3.582-8-8l0,0c0-4.418,3.582-8,8-8h0c4.418,0,8,3.582,8,8l0,0
	C224,408.418,220.418,412,216,412z"/>
<g>
</g>
<g>
</g>
<g>
</g>
<g>
</g>
<g>
</g>
<g>
</g>
<g>
</g>
<g>
</g>
<g>
</g>
<g>
</g>
<g>
</g>
<g>
</g>
<g>
</g>
<g>
</g>
<g>
</g>
</svg>
