<svg id="Capa_1" enable-background="new 0 0 512 512" height="512" viewBox="0 0 512 512" width="512" xmlns="http://www.w3.org/2000/svg"><g><g><path d="m166 295v207h180c0-10.306 0-197.856 0-207z" fill="#ffda8f"/><path d="m436 256c-14.518 0-105.386 0-120 0l-60-120z" fill="#ff7d97"/><path d="m346 442h60v60h-60z" fill="#ff7d97"/><path d="m346 297h60v145h-60z" fill="#9399aa"/><path d="m256 10h90v60h-90z" fill="#ff7d97"/><path d="m256 136 60 120c-14.518 0-105.386 0-120 0z" fill="#ffda8f"/><path d="m256 136-60 120c-14.518 0-105.386 0-120 0z" fill="#ff7d97"/><path d="m106 442h60v60h-60z" fill="#ff7d97"/><path d="m106 293h60v149h-60z" fill="#9399aa"/><path d="m76 256v30c0 16.57 13.43 30 30 30s30-13.43 30-30c0 16.57 13.43 30 30 30s30-13.43 30-30c0 16.57 13.43 30 30 30s30-13.43 30-30c0 16.57 13.43 30 30 30s30-13.43 30-30c0 16.57 13.43 30 30 30s30-13.43 30-30c0 16.57 13.43 30 30 30s30-13.43 30-30v-30c-133.752 0-229.556 0-360 0z" fill="#ecf2f3"/></g><g><path d="m96 492h-50c-5.522 0-10 4.478-10 10s4.478 10 10 10h165c5.522 0 10-4.478 10-10s-4.478-10-10-10h-35v-167.266c7.861-2.031 14.785-6.404 20-12.319 7.335 8.321 18.062 13.585 30 13.585s22.665-5.264 30-13.585c7.335 8.321 18.062 13.585 30 13.585s22.665-5.264 30-13.585c5.215 5.915 12.139 10.288 20 12.319v167.266h-35c-5.522 0-10 4.478-10 10s4.478 10 10 10h165c5.522 0 10-4.478 10-10s-4.478-10-10-10h-50v-167.266c17.233-4.452 30-20.13 30-38.734v-20h20c5.522 0 10-4.478 10-10s-4.478-10-10-10h-26.973l-173.027-115.352v-50.648h80c5.522 0 10-4.478 10-10v-60c0-5.522-4.478-10-10-10h-90c-5.522 0-10 4.478-10 10v120.648l-173.027 115.352h-26.973c-5.522 0-10 4.478-10 10s4.478 10 10 10h20v20c0 18.604 12.767 34.282 30 38.734zm40-179.585c5.215 5.915 12.139 10.288 20 12.319v107.266h-40v-107.266c7.861-2.031 14.786-6.404 20-12.319zm-20 179.585v-40h40v40zm50-186c-11.028 0-20-8.972-20-20v-20h40v20c0 11.028-8.971 20-20 20zm46.18-60 43.82-87.64 43.82 87.64zm13.82 60c-11.028 0-20-8.972-20-20v-20h40v20c0 11.028-8.971 20-20 20zm60 0c-11.028 0-20-8.972-20-20v-20h40v20c0 11.028-8.971 20-20 20zm40-20v-20h40v20c0 11.028-8.972 20-20 20s-20-8.972-20-20zm70 38.734v107.266h-40v-107.266c7.861-2.031 14.785-6.404 20-12.319 5.215 5.915 12.139 10.288 20 12.319zm-40 167.266v-40h40v40zm50-186c-11.028 0-20-8.972-20-20v-20h40v20c0 11.028-8.971 20-20 20zm-83.82-60-40.396-80.792 121.189 80.792zm-56.18-226h70v40h-70zm-35.784 145.208-40.396 80.792h-80.792zm-144.216 120.792v-20h40v20c0 11.028-8.972 20-20 20s-20-8.972-20-20z"/><circle cx="256" cy="502" r="10"/></g></g></svg>