<?xml version="1.0" encoding="iso-8859-1"?>
<!-- Generator: Adobe Illustrator 21.0.0, SVG Export Plug-In . SVG Version: 6.00 Build 0)  -->
<svg xmlns="http://www.w3.org/2000/svg" xmlns:xlink="http://www.w3.org/1999/xlink" version="1.1" id="Capa_1" x="0px" y="0px" viewBox="0 0 512 512" style="enable-background:new 0 0 512 512;" xml:space="preserve" width="512" height="512">
<g>
	<rect x="105.078" y="89.164" style="fill:#546E7A;" width="36.056" height="355.298"/>
	<rect x="377.046" y="89.164" style="fill:#455A64;" width="36.056" height="355.298"/>
	<path style="fill:#FFD740;" d="M481.611,218.925H30.389c-4.551,0-8.24-3.689-8.24-8.24v-59.729c0-4.551,3.689-8.24,8.24-8.24   h451.222c4.551,0,8.24,3.689,8.24,8.24v59.729C489.851,215.236,486.162,218.925,481.611,218.925z"/>
	<path style="fill:#FFC400;" d="M481.61,142.716h-30.905c4.552,0,8.241,3.689,8.241,8.239v59.731c0,4.55-3.69,8.239-8.241,8.239   h30.905c4.552,0,8.241-3.689,8.241-8.239v-59.731C489.851,146.405,486.161,142.716,481.61,142.716z"/>
	<g>
		<polygon style="fill:#FF5722;" points="124.559,142.716 85.186,218.925 48.089,218.925 87.452,142.716   "/>
		<polygon style="fill:#FF5722;" points="210.064,142.716 170.691,218.925 133.594,218.925 172.957,142.716   "/>
		<polygon style="fill:#FF5722;" points="295.569,142.716 256.196,218.925 219.099,218.925 258.462,142.716   "/>
		<polygon style="fill:#FF5722;" points="381.074,142.716 341.701,218.925 304.604,218.925 343.967,142.716   "/>
		<polygon style="fill:#FF5722;" points="466.579,142.716 427.206,218.925 390.109,218.925 429.472,142.716   "/>
	</g>
	<path style="fill:#FFD740;" d="M485.731,276.082H26.269c-2.275,0-4.12-1.845-4.12-4.12v-22.655c0-2.275,1.845-4.12,4.12-4.12   h459.462c2.275,0,4.12,1.845,4.12,4.12v22.655C489.851,274.237,488.007,276.082,485.731,276.082z"/>
	<path style="fill:#FFC400;" d="M485.73,245.187h-30.905c2.276,0,4.121,1.844,4.121,4.119v22.657c0,2.275-1.845,4.119-4.121,4.119   h30.905c2.276,0,4.121-1.844,4.121-4.119v-22.657C489.851,247.031,488.006,245.187,485.73,245.187z"/>
	<ellipse style="fill:#FF7043;" cx="123.107" cy="82.47" rx="33.481" ry="33.47"/>
	<path style="fill:#FF5722;" d="M123.107,49c-5.576,0-10.828,1.37-15.453,3.78c10.711,5.583,18.028,16.779,18.028,29.69   c0,12.911-7.317,24.107-18.028,29.69c4.624,2.41,9.877,3.78,15.453,3.78c18.491,0,33.481-14.985,33.481-33.47   C156.588,63.985,141.598,49,123.107,49z"/>
	<ellipse style="fill:#FF7043;" cx="395.074" cy="82.47" rx="33.481" ry="33.47"/>
	<path style="fill:#FF5722;" d="M395.074,49c-5.576,0-10.828,1.37-15.453,3.78c10.711,5.583,18.028,16.779,18.028,29.69   c0,12.911-7.317,24.107-18.028,29.69c4.624,2.41,9.877,3.78,15.453,3.78c18.491,0,33.481-14.985,33.481-33.47   C428.555,63.985,413.565,49,395.074,49z"/>
	<path style="fill:#CFD8DC;" d="M493.463,463H18.537C8.299,463,0,454.701,0,444.463v0c0-10.238,8.299-18.537,18.537-18.537h474.925   c10.238,0,18.537,8.299,18.537,18.537v0C512,454.701,503.701,463,493.463,463z"/>
	<path style="fill:#B0BEC5;" d="M493.457,425.925h-30.905c10.241,0,18.543,8.299,18.543,18.537v0   c0,10.238-8.302,18.537-18.543,18.537h30.905c10.241,0,18.543-8.299,18.543-18.537v0C512,434.225,503.698,425.925,493.457,425.925z   "/>
</g>















</svg>
