<svg width="100" height="100" viewBox="0 0 100 100" fill="none" xmlns="http://www.w3.org/2000/svg">
<path fill-rule="evenodd" clip-rule="evenodd" d="M0 15C0 6.71573 6.71573 0 15 0H85C93.2843 0 100 6.71573 100 15V85C100 93.2843 93.2843 100 85 100H15C6.71573 100 0 93.2843 0 85V15ZM15 10C12.2386 10 10 12.2386 10 15V85C10 87.7614 12.2386 90 15 90H85C87.7614 90 90 87.7614 90 85V15C90 12.2386 87.7614 10 85 10H15Z" fill="#2C3038"/>
<path d="M37.8256 57.15C37.9856 57.51 38.0656 57.83 38.0656 58.11C38.0656 58.67 37.8356 59.15 37.3756 59.55C36.9356 59.93 36.4256 60.12 35.8456 60.12C35.4656 60.12 35.1056 60.02 34.7656 59.82C34.4256 59.6 34.1656 59.28 33.9856 58.86L32.3956 55.32H22.2256L20.6356 58.86C20.4556 59.28 20.1956 59.6 19.8556 59.82C19.5356 60.02 19.1756 60.12 18.7756 60.12C18.1956 60.12 17.6756 59.93 17.2156 59.55C16.7556 59.15 16.5256 58.67 16.5256 58.11C16.5256 57.83 16.6056 57.51 16.7656 57.15L24.8656 40.14C25.0856 39.66 25.4156 39.3 25.8556 39.06C26.2956 38.8 26.7656 38.67 27.2656 38.67C27.7856 38.67 28.2656 38.8 28.7056 39.06C29.1456 39.32 29.4856 39.68 29.7256 40.14L37.8256 57.15ZM30.8056 51.78L27.3256 43.98L23.8156 51.78H30.8056Z" fill="#2C3038"/>
<path d="M56.7849 38.7C57.4449 38.7 57.9749 38.92 58.3749 39.36C58.7949 39.78 59.0049 40.33 59.0049 41.01V57.84C59.0049 58.54 58.7949 59.11 58.3749 59.55C57.9749 59.97 57.4449 60.18 56.7849 60.18C56.0649 60.18 55.4849 59.92 55.0449 59.4L44.9949 46.53V57.84C44.9949 58.54 44.7949 59.11 44.3949 59.55C44.0149 59.97 43.4949 60.18 42.8349 60.18C42.1749 60.18 41.6449 59.97 41.2449 59.55C40.8449 59.11 40.6449 58.54 40.6449 57.84V41.01C40.6449 40.33 40.8449 39.78 41.2449 39.36C41.6649 38.92 42.2049 38.7 42.8649 38.7C43.6049 38.7 44.1749 38.96 44.5749 39.48L54.6249 52.26V41.01C54.6249 40.33 54.8249 39.78 55.2249 39.36C55.6249 38.92 56.1449 38.7 56.7849 38.7Z" fill="#2C3038"/>
<path d="M65.3935 60C64.6935 60 64.1535 59.81 63.7735 59.43C63.3935 59.05 63.2035 58.51 63.2035 57.81V41.04C63.2035 40.34 63.3935 39.8 63.7735 39.42C64.1535 39.04 64.6935 38.85 65.3935 38.85H71.4235C73.7235 38.85 75.7035 39.27 77.3635 40.11C79.0235 40.95 80.2935 42.16 81.1735 43.74C82.0535 45.32 82.4935 47.21 82.4935 49.41C82.4935 51.61 82.0535 53.51 81.1735 55.11C80.3135 56.69 79.0535 57.9 77.3935 58.74C75.7335 59.58 73.7435 60 71.4235 60H65.3935ZM71.0935 56.22C75.5935 56.22 77.8435 53.95 77.8435 49.41C77.8435 44.89 75.5935 42.63 71.0935 42.63H67.8835V56.22H71.0935Z" fill="#2C3038"/>
</svg>
