<svg width="100" height="100" viewBox="0 0 100 100" fill="none" xmlns="http://www.w3.org/2000/svg">
<path fill-rule="evenodd" clip-rule="evenodd" d="M0 15C0 6.71573 6.71573 0 15 0H85C93.2843 0 100 6.71573 100 15V85C100 93.2843 93.2843 100 85 100H15C6.71573 100 0 93.2843 0 85V15ZM15 10C12.2386 10 10 12.2386 10 15V85C10 87.7614 12.2386 90 15 90H85C87.7614 90 90 87.7614 90 85V15C90 12.2386 87.7614 10 85 10H15Z" fill="#2C3038"/>
<path d="M34.2437 65.405C31.0937 65.405 28.3487 64.745 26.0087 63.425C23.6987 62.075 21.9137 60.185 20.6537 57.755C19.3937 55.295 18.7637 52.415 18.7637 49.115C18.7637 45.815 19.3937 42.95 20.6537 40.52C21.9137 38.06 23.6987 36.17 26.0087 34.85C28.3487 33.53 31.0937 32.87 34.2437 32.87C37.3937 32.87 40.1237 33.53 42.4337 34.85C44.7737 36.17 46.5737 38.06 47.8337 40.52C49.0937 42.95 49.7237 45.815 49.7237 49.115C49.7237 52.415 49.0937 55.295 47.8337 57.755C46.5737 60.185 44.7737 62.075 42.4337 63.425C40.1237 64.745 37.3937 65.405 34.2437 65.405ZM34.2437 59.96C36.8837 59.96 38.9537 59.03 40.4537 57.17C41.9837 55.31 42.7487 52.625 42.7487 49.115C42.7487 45.605 41.9987 42.935 40.4987 41.105C38.9987 39.245 36.9137 38.315 34.2437 38.315C31.5737 38.315 29.4887 39.245 27.9887 41.105C26.5187 42.935 25.7837 45.605 25.7837 49.115C25.7837 52.625 26.5337 55.31 28.0337 57.17C29.5337 59.03 31.6037 59.96 34.2437 59.96Z" fill="#2C3038"/>
<path d="M81.0936 60.545C81.5436 61.205 81.7686 61.85 81.7686 62.48C81.7686 63.32 81.4236 64.01 80.7336 64.55C80.0736 65.09 79.2936 65.36 78.3936 65.36C77.8236 65.36 77.2686 65.225 76.7286 64.955C76.1886 64.685 75.7386 64.265 75.3786 63.695L69.4386 54.875C68.9286 54.095 68.3886 53.54 67.8186 53.21C67.2486 52.85 66.5286 52.67 65.6586 52.67H62.0136V61.76C62.0136 62.84 61.6986 63.695 61.0686 64.325C60.4686 64.955 59.6436 65.27 58.5936 65.27C57.5136 65.27 56.6586 64.955 56.0286 64.325C55.3986 63.695 55.0836 62.84 55.0836 61.76V36.56C55.0836 35.51 55.3686 34.7 55.9386 34.13C56.5086 33.56 57.3186 33.275 58.3686 33.275H69.6636C73.3836 33.275 76.1886 34.1 78.0786 35.75C79.9986 37.37 80.9586 39.725 80.9586 42.815C80.9586 45.245 80.2836 47.27 78.9336 48.89C77.5836 50.51 75.6786 51.575 73.2186 52.085C74.1186 52.265 74.9136 52.625 75.6036 53.165C76.3236 53.675 77.0136 54.425 77.6736 55.415L81.0936 60.545ZM68.6286 47.36C70.6386 47.36 72.0936 47.015 72.9936 46.325C73.8936 45.605 74.3436 44.495 74.3436 42.995C74.3436 41.465 73.8936 40.355 72.9936 39.665C72.0936 38.975 70.6386 38.63 68.6286 38.63H61.9236V47.36H68.6286Z" fill="#2C3038"/>
</svg>
