<?xml version="1.0" encoding="iso-8859-1"?>
<!-- Generator: Adobe Illustrator 19.0.0, SVG Export Plug-In . SVG Version: 6.00 Build 0)  -->
<svg version="1.1" id="Capa_1" xmlns="http://www.w3.org/2000/svg" xmlns:xlink="http://www.w3.org/1999/xlink" x="0px" y="0px"
	 viewBox="0 0 512 512" style="enable-background:new 0 0 512 512;" xml:space="preserve">
<rect x="41.14" y="10" style="fill:#EE584F;" width="39.959" height="492"/>
<g>
	<rect x="431.1" y="10" style="fill:#EEEEEE;" width="39.768" height="492"/>
	<rect x="391.1" y="10" style="fill:#EEEEEE;" width="40" height="492"/>
</g>
<path style="fill:#9B4C14;" d="M81.096,10v492h310V10H81.096z"/>
<rect x="121.93" y="118.98" style="fill:#CBC2BA;" width="227.5" height="125.52"/>
<g>
	<path style="fill:#231F20;" d="M470.863,0H41.137c-5.522,0-10,4.477-10,10v492c0,5.522,4.478,10,10,10h429.727
		c5.522,0,10-4.478,10-10V10C480.863,4.477,476.385,0,470.863,0z M71.096,492H51.137V20h19.959V492z M381.096,492h-290V20h290V492z
		 M421.096,492h-20V20h20V492z M460.863,492h-19.768V20h19.768V492z"/>
	<path style="fill:#231F20;" d="M121.926,254.502h227.505c5.522,0,10-4.479,10-10V118.984c0-5.522-4.478-10-10-10H121.926
		c-5.522,0-10,4.478-10,10v125.518C111.926,250.023,116.403,254.502,121.926,254.502z M131.926,128.984h207.505v105.518H131.926
		V128.984z"/>
	<path style="fill:#231F20;" d="M349.178,424.508c-5.522,0-10,4.478-10,10v17h-17c-5.522,0-10,4.478-10,10s4.478,10,10,10h27
		c5.522,0,10-4.478,10-10v-27C359.178,428.985,354.7,424.508,349.178,424.508z"/>
	<path style="fill:#231F20;" d="M263.5,451.508h-95c-5.522,0-10,4.478-10,10s4.478,10,10,10h95c5.522,0,10-4.478,10-10
		C273.5,455.985,269.022,451.508,263.5,451.508z"/>
	<path style="fill:#231F20;" d="M321.316,61.16h17v17c0,5.522,4.478,10,10,10s10-4.478,10-10v-27c0-5.522-4.478-10-10-10h-27
		c-5.522,0-10,4.478-10,10C311.316,56.683,315.794,61.16,321.316,61.16z"/>
	<path style="fill:#231F20;" d="M168.5,61.16h95c5.522,0,10-4.478,10-10s-4.478-10-10-10h-95c-5.522,0-10,4.478-10,10
		C158.5,56.683,162.978,61.16,168.5,61.16z"/>
	<path style="fill:#231F20;" d="M162.001,170.498h30c5.522,0,10-4.478,10-10s-4.478-10-10-10h-30c-5.523,0-10,4.478-10,10
		S156.479,170.498,162.001,170.498z"/>
	<path style="fill:#231F20;" d="M235.5,170.5c5.52,0,10-4.48,10-10c0-5.53-4.48-10-10-10s-10,4.47-10,10
		C225.5,166.02,229.98,170.5,235.5,170.5z"/>
	<path style="fill:#231F20;" d="M309.001,150.498h-30c-5.523,0-10,4.478-10,10s4.477,10,10,10h30c5.522,0,10-4.478,10-10
		S314.523,150.498,309.001,150.498z"/>
	<path style="fill:#231F20;" d="M309.001,192.498h-147c-5.523,0-10,4.478-10,10s4.477,10,10,10h147c5.522,0,10-4.478,10-10
		S314.523,192.498,309.001,192.498z"/>
</g>
<g>
</g>
<g>
</g>
<g>
</g>
<g>
</g>
<g>
</g>
<g>
</g>
<g>
</g>
<g>
</g>
<g>
</g>
<g>
</g>
<g>
</g>
<g>
</g>
<g>
</g>
<g>
</g>
<g>
</g>
</svg>
