<svg height="480pt" viewBox="-40 0 480 480" width="480pt" xmlns="http://www.w3.org/2000/svg"><path d="m392 48h-128v-24c0-13.253906-10.746094-24-24-24h-80c-13.253906 0-24 10.746094-24 24v24h-128c-4.417969 0-8 3.582031-8 8s3.582031 8 8 8h32.59375l30.292969 393.839844c1.015625 12.480468 11.414062 22.109375 23.9375 22.160156h210.351562c12.523438-.050781 22.921875-9.679688 23.9375-22.160156l30.292969-393.839844h32.59375c4.417969 0 8-3.582031 8-8s-3.582031-8-8-8zm-240-24c0-4.417969 3.582031-8 8-8h80c4.417969 0 8 3.582031 8 8v24h-96zm161.160156 432.617188c-.34375 4.164062-3.820312 7.371093-8 7.382812h-210.335937c-4.179688-.011719-7.65625-3.21875-8-7.382812l-30.183594-392.617188h286.71875zm0 0"/><path d="m200 96c-4.417969 0-8 3.582031-8 8v320c0 4.417969 3.582031 8 8 8s8-3.582031 8-8v-320c0-4.417969-3.582031-8-8-8zm0 0"/><path d="m263.601562 432h.398438c4.265625.003906 7.785156-3.339844 8-7.601562l16-320c.222656-4.417969-3.183594-8.175782-7.601562-8.398438-4.417969-.222656-8.175782 3.183594-8.398438 7.601562l-16 320c-.109375 2.121094.632812 4.199219 2.058594 5.773438 1.425781 1.578125 3.417968 2.523438 5.542968 2.625zm0 0"/><path d="m119.601562 96c-2.125.101562-4.117187 1.046875-5.542968 2.625-1.425782 1.574219-2.167969 3.652344-2.058594 5.773438l16 320c.214844 4.261718 3.734375 7.605468 8 7.601562h.40625c2.121094-.105469 4.117188-1.050781 5.539062-2.625 1.425782-1.578125 2.164063-3.652344 2.054688-5.773438l-16-320c-.25-4.40625-3.992188-7.792968-8.398438-7.601562zm0 0"/></svg>