<?xml version="1.0" encoding="iso-8859-1"?>
<!-- Generator: Adobe Illustrator 19.0.0, SVG Export Plug-In . SVG Version: 6.00 Build 0)  -->
<svg version="1.1" id="Capa_1" xmlns="http://www.w3.org/2000/svg" xmlns:xlink="http://www.w3.org/1999/xlink" x="0px" y="0px"
	 viewBox="0 0 512 512" style="enable-background:new 0 0 512 512;" xml:space="preserve">
<g>
	<g>
		<path d="M256,0C140.949,0,18.667,31.787,18.667,90.667c0,16.405,9.728,30.613,25.899,42.709c0.341,0.576,0.384,1.28,0.853,1.792
			l167.915,185.579v180.587c0,4.309,2.603,8.213,6.592,9.856c1.323,0.555,2.709,0.811,4.075,0.811c2.773,0,5.504-1.088,7.552-3.115
			l64-64c2.005-2.005,3.115-4.715,3.115-7.552V320.747l167.915-185.579c0.469-0.512,0.512-1.216,0.853-1.792
			c16.171-12.096,25.899-26.304,25.899-42.709C493.333,31.787,371.051,0,256,0z M450.795,119.019
			c-0.107,0.064-0.235,0.043-0.32,0.107c-9.259,6.187-20.779,11.755-34.005,16.704c-0.448,0.171-0.875,0.341-1.344,0.512
			c-6.443,2.368-13.269,4.565-20.48,6.592c-0.853,0.235-1.792,0.469-2.667,0.704c-6.187,1.707-12.651,3.264-19.328,4.715
			c-1.685,0.363-3.349,0.725-5.056,1.088c-15.552,3.179-32.256,5.696-49.771,7.467c-1.835,0.192-3.712,0.341-5.568,0.512
			c-7.104,0.64-14.315,1.152-21.632,1.557c-2.24,0.128-4.459,0.256-6.741,0.363c-9.173,0.405-18.475,0.661-27.904,0.661
			c-9.429,0-18.731-0.256-27.904-0.661c-2.283-0.107-4.48-0.235-6.741-0.363c-7.317-0.405-14.549-0.917-21.653-1.557
			c-1.856-0.171-3.733-0.32-5.547-0.512c-17.515-1.771-34.197-4.288-49.771-7.467c-1.707-0.341-3.371-0.725-5.056-1.088
			c-6.677-1.451-13.141-3.008-19.328-4.715c-0.875-0.235-1.813-0.448-2.667-0.704c-7.211-2.048-14.059-4.245-20.48-6.592
			c-0.448-0.171-0.875-0.341-1.323-0.491c-13.248-4.949-24.768-10.517-34.005-16.704c-0.085-0.064-0.213-0.043-0.32-0.107
			c-13.589-9.131-21.205-18.88-21.205-28.352c0-32.789,88.704-69.333,216-69.333s216,36.544,216,69.333
			C472,100.139,464.384,109.909,450.795,119.019z"/>
	</g>
</g>
<g>
</g>
<g>
</g>
<g>
</g>
<g>
</g>
<g>
</g>
<g>
</g>
<g>
</g>
<g>
</g>
<g>
</g>
<g>
</g>
<g>
</g>
<g>
</g>
<g>
</g>
<g>
</g>
<g>
</g>
</svg>
