<svg height="496pt" viewBox="0 -8 496 496" width="496pt" xmlns="http://www.w3.org/2000/svg" xmlns:xlink="http://www.w3.org/1999/xlink"><linearGradient id="a"><stop offset="0" stop-color="#003f8a"/><stop offset=".518" stop-color="#00d7df"/><stop offset="1" stop-color="#006df0"/></linearGradient><linearGradient id="b" gradientUnits="userSpaceOnUse" x1="35.872" x2="519.552" xlink:href="#a" y1="516.12" y2="32.448"/><linearGradient id="c" gradientUnits="userSpaceOnUse" x1="-68.128" x2="415.552" xlink:href="#a" y1="412.128" y2="-71.552"/><linearGradient id="d" gradientUnits="userSpaceOnUse" x1="-128.128" x2="355.552" xlink:href="#a" y1="352.128" y2="-131.552"/><linearGradient id="e" gradientUnits="userSpaceOnUse" x1="-12.128" x2="471.552" xlink:href="#a" y1="468.128" y2="-15.552"/><linearGradient id="f" gradientUnits="userSpaceOnUse" x1="-.128" x2="483.552" xlink:href="#a" y1="480.128" y2="-3.552"/><linearGradient id="g" gradientUnits="userSpaceOnUse" x1="-8.128" x2="475.552" xlink:href="#a" y1="472.128" y2="-11.552"/><linearGradient id="h" gradientUnits="userSpaceOnUse" x1="67.872" x2="551.552" xlink:href="#a" y1="548.128" y2="64.448"/><linearGradient id="i" gradientUnits="userSpaceOnUse" x1="79.872" x2="563.552" xlink:href="#a" y1="560.128" y2="76.448"/><linearGradient id="j" gradientUnits="userSpaceOnUse" x1="23.872" x2="507.552" xlink:href="#a" y1="504.128" y2="20.448"/><linearGradient id="k" gradientUnits="userSpaceOnUse" x1="41.872" x2="525.552" xlink:href="#a" y1="522.128" y2="38.448"/><linearGradient id="l" gradientUnits="userSpaceOnUse" x1="-96.128" x2="387.552" xlink:href="#a" y1="384.128" y2="-99.552"/><linearGradient id="m" gradientUnits="userSpaceOnUse" x1="-72.128" x2="411.552" xlink:href="#a" y1="408.128" y2="-75.552"/><path d="m488 464h-208v-80h64c2.429688 0 4.730469-1.101562 6.246094-3l32-40c2.34375-2.921875 2.34375-7.078125 0-10l-32-40c-1.515625-1.898438-3.816406-3-6.246094-3h-64v-24h128c4.417969 0 8-3.582031 8-8v-96c0-4.417969-3.582031-8-8-8h-128v-16h24c4.417969 0 8-3.582031 8-8v-80c0-4.417969-3.582031-8-8-8h-24v-32c0-4.417969-3.582031-8-8-8h-48c-4.417969 0-8 3.582031-8 8v32h-120c-2.429688 0-4.730469 1.101562-6.246094 3l-32 40c-2.34375 2.921875-2.34375 7.078125 0 10l32 40c1.515625 1.898438 3.816406 3 6.246094 3h120v16h-128c-4.417969 0-8 3.582031-8 8v96c0 4.417969 3.582031 8 8 8h128v24h-80c-4.417969 0-8 3.582031-8 8v80c0 4.417969 3.582031 8 8 8h80v80h-208c-4.417969 0-8 3.582031-8 8s3.582031 8 8 8h480c4.417969 0 8-3.582031 8-8s-3.582031-8-8-8zm-256-448h32v24h-32zm-157.753906 72 25.601562-32h196.152344v64h-196.160156zm157.753906 48h32v16h-32zm-136 32h304v80h-304zm136 96h32v24h-32zm-88 40h196.160156l25.601563 32-25.601563 32h-196.160156zm88 160v-80h32v80zm0 0" fill="url(#b)"/><path d="m160 176h-48c-4.417969 0-8 3.582031-8 8v48c0 4.417969 3.582031 8 8 8h48c4.417969 0 8-3.582031 8-8v-48c0-4.417969-3.582031-8-8-8zm-8 48h-32v-32h32zm0 0" fill="url(#c)"/><path d="m160 64h-48c-4.417969 0-8 3.582031-8 8v32c0 4.417969 3.582031 8 8 8h48c4.417969 0 8-3.582031 8-8v-32c0-4.417969-3.582031-8-8-8zm-8 32h-32v-16h32zm0 0" fill="url(#d)"/><path d="m192 192h160c4.417969 0 8-3.582031 8-8s-3.582031-8-8-8h-160c-4.417969 0-8 3.582031-8 8s3.582031 8 8 8zm0 0" fill="url(#e)"/><path d="m192 216h160c4.417969 0 8-3.582031 8-8s-3.582031-8-8-8h-160c-4.417969 0-8 3.582031-8 8s3.582031 8 8 8zm0 0" fill="url(#f)"/><path d="m280 232c0-4.417969-3.582031-8-8-8h-80c-4.417969 0-8 3.582031-8 8s3.582031 8 8 8h80c4.417969 0 8-3.582031 8-8zm0 0" fill="url(#g)"/><path d="m272 328h48c4.417969 0 8-3.582031 8-8s-3.582031-8-8-8h-48c-4.417969 0-8 3.582031-8 8s3.582031 8 8 8zm0 0" fill="url(#h)"/><path d="m272 352h48c4.417969 0 8-3.582031 8-8s-3.582031-8-8-8h-48c-4.417969 0-8 3.582031-8 8s3.582031 8 8 8zm0 0" fill="url(#i)"/><path d="m299.039062 224.640625c-2.976562-1.253906-6.417968-.589844-8.71875 1.679687-1.460937 1.53125-2.289062 3.5625-2.320312 5.679688-.019531 2.128906.816406 4.175781 2.320312 5.679688.777344.707031 1.671876 1.273437 2.640626 1.679687 2.460937 1.054687 5.285156.796875 7.511718-.6875 2.226563-1.484375 3.554688-3.996094 3.527344-6.671875-.03125-2.117188-.859375-4.148438-2.320312-5.679688-.777344-.707031-1.671876-1.273437-2.640626-1.679687zm0 0" fill="url(#j)"/><path d="m240 328h8c4.417969 0 8-3.582031 8-8s-3.582031-8-8-8h-8c-4.417969 0-8 3.582031-8 8s3.582031 8 8 8zm0 0" fill="url(#k)"/><path d="m216 80h-32c-4.417969 0-8 3.582031-8 8s3.582031 8 8 8h32c4.417969 0 8-3.582031 8-8s-3.582031-8-8-8zm0 0" fill="url(#l)"/><path d="m242.320312 93.679688c.777344.707031 1.671876 1.273437 2.640626 1.679687 1.9375.855469 4.140624.855469 6.078124 0 .96875-.40625 1.863282-.972656 2.640626-1.679687 2.289062-2.289063 2.957031-5.742188 1.679687-8.71875-.726563-2.011719-2.308594-3.59375-4.320313-4.320313-2.976562-1.253906-6.417968-.589844-8.71875 1.679687-.722656.765626-1.292968 1.660157-1.679687 2.640626-.855469 1.9375-.855469 4.140624 0 6.078124.40625.96875.976563 1.863282 1.679687 2.640626zm0 0" fill="url(#m)"/></svg>