<svg width="427" height="427.54133" xmlns="http://www.w3.org/2000/svg">

 <g>
  <title>background</title>
  <rect fill="none" id="canvas_background" height="402" width="582" y="-1" x="-1"/>
 </g>
 <g>
  <title>Layer 1</title>
  <path id="svg_1" d="m90.933594,427.542969c-8.832032,0 -16,-7.167969 -16,-16l0,-395.542969c0,-8.832031 7.167968,-16 16,-16c8.832031,0 16,7.167969 16,16l0,395.542969c0,8.832031 -7.167969,16 -16,16zm0,0"/>
  <path transform="rotate(180 90.953125,54.115478515625) " id="svg_2" d="m90.933594,107.542969c-4.246094,0 -8.34375,-1.6875 -11.328125,-4.714844l-74.667969,-74.839844c-6.230469,-6.25 -6.230469,-16.382812 0.042969,-22.632812c6.230469,-6.230469 16.40625,-6.230469 22.632812,0.042969l63.339844,63.488281l63.339844,-63.488281c6.226562,-6.273438 16.40625,-6.273438 22.632812,-0.042969c6.273438,6.25 6.273438,16.382812 0.042969,22.632812l-74.667969,74.839844c-3.027343,3.027344 -7.125,4.714844 -11.367187,4.714844zm0,0"/>
  <path id="svg_3" d="m346.933594,427.542969l-74.667969,0c-5.632813,0 -10.835937,-2.96875 -13.738281,-7.789063c-2.902344,-4.820312 -3.03125,-10.816406 -0.382813,-15.765625l62.015625,-115.414062l-47.894531,0c-8.832031,0 -16,-7.167969 -16,-16s7.167969,-16 16,-16l74.667969,0c5.628906,0 10.835937,2.96875 13.738281,7.789062c2.898437,4.820313 3.027344,10.816407 0.382813,15.765625l-62.015626,115.414063l47.914063,0c8.832031,0 16,7.167969 16,16s-7.1875,16 -16.019531,16zm0,0"/>
  <path id="svg_4" d="m346.933594,170.988281c-8.832032,0 -16,-7.167969 -16,-16l0,-101.570312c0,-11.816407 -9.558594,-21.417969 -21.335938,-21.417969c-11.773437,0 -21.332031,9.601562 -21.332031,21.417969l0,101.570312c0,8.832031 -7.167969,16 -16,16s-16,-7.167969 -16,-16l0,-101.570312c0,-29.460938 23.914063,-53.417969 53.332031,-53.417969c29.417969,0 53.335938,23.957031 53.335938,53.417969l0,101.570312c0,8.832031 -7.167969,16 -16,16zm0,0"/>
  <path id="svg_5" d="m346.933594,112.191406l-74.667969,0c-8.832031,0 -16,-7.167968 -16,-16c0,-8.832031 7.167969,-16 16,-16l74.667969,0c8.832031,0 16,7.167969 16,16c0,8.832032 -7.167969,16 -16,16zm0,0"/>
 </g>
</svg>