<svg width="427" height="427.54133" xmlns="http://www.w3.org/2000/svg">

 <g>
  <title>background</title>
  <rect fill="none" id="canvas_background" height="402" width="582" y="-1" x="-1"/>
 </g>
 <g>
  <title>Layer 1</title>
  <path id="svg_1" d="m90.933594,427.542969c-8.832032,0 -16,-7.167969 -16,-16l0,-395.542969c0,-8.832031 7.167968,-16 16,-16c8.832031,0 16,7.167969 16,16l0,395.542969c0,8.832031 -7.167969,16 -16,16zm0,0"/>
  <path id="svg_2" d="m90.933594,427.542969c-4.246094,0 -8.34375,-1.6875 -11.328125,-4.714844l-74.667969,-74.839844c-6.230469,-6.25 -6.230469,-16.382812 0.042969,-22.632812c6.230469,-6.230469 16.40625,-6.230469 22.632812,0.042969l63.339844,63.488281l63.339844,-63.488281c6.25,-6.273438 16.425781,-6.273438 22.632812,-0.042969c6.273438,6.25 6.273438,16.382812 0.042969,22.632812l-74.667969,74.839844c-3.027343,3.027344 -7.125,4.714844 -11.367187,4.714844zm0,0"/>
  <path id="svg_3" d="m330.933594,170.988281c-8.832032,0 -16,-7.167969 -16,-16l0,-122.988281l-21.335938,0c-8.832031,0 -16,-7.167969 -16,-16s7.167969,-16 16,-16l37.335938,0c8.832031,0 16,7.167969 16,16l0,138.988281c0,8.832031 -7.167969,16 -16,16zm0,0"/>
  <path id="svg_4" d="m346.933594,427.542969l-53.335938,0c-8.832031,0 -16,-7.167969 -16,-16s7.167969,-16 16,-16l53.335938,0c2.941406,0 5.332031,-2.414063 5.332031,-5.398438l0,-26.753906l-37.332031,0c-20.589844,0 -37.335938,-16.765625 -37.335938,-37.375l0,-32.085937c0,-20.605469 16.746094,-37.375 37.335938,-37.375l32,0c20.585937,0 37.332031,16.769531 37.332031,37.375l0,96.214843c0,20.628907 -16.746094,37.398438 -37.332031,37.398438zm-32,-138.988281c-2.945313,0 -5.335938,2.410156 -5.335938,5.375l0,32.085937c0,2.964844 2.390625,5.375 5.335938,5.375l37.332031,0l0,-37.460937c0,-2.964844 -2.390625,-5.375 -5.332031,-5.375l-32,0zm0,0"/>
  <path id="svg_5" d="m368.265625,170.988281l-74.667969,0c-8.832031,0 -16,-7.167969 -16,-16s7.167969,-16 16,-16l74.667969,0c8.832031,0 16,7.167969 16,16s-7.167969,16 -16,16zm0,0"/>
 </g>
</svg>