<svg width="427" height="427.54133" xmlns="http://www.w3.org/2000/svg">

 <g>
  <title>background</title>
  <rect fill="none" id="canvas_background" height="402" width="582" y="-1" x="-1"/>
 </g>
 <g>
  <title>Layer 1</title>
  <path id="svg_1" d="m90.93359,427.54297c-8.83203,0 -16,-7.16797 -16,-16l0,-395.54297c0,-8.83203 7.16797,-16 16,-16c8.83204,0 16,7.16797 16,16l0,395.54297c0,8.83203 -7.16796,16 -16,16zm0,0"/>
  <path transform="rotate(180 90.953125,54.115478515625) " id="svg_2" d="m90.93359,107.54297c-4.24609,0 -8.34375,-1.6875 -11.32812,-4.71484l-74.66797,-74.83985c-6.23047,-6.25 -6.23047,-16.38281 0.04297,-22.63281c6.23047,-6.23047 16.40625,-6.23047 22.63281,0.04297l63.33985,63.48828l63.33984,-63.48828c6.25,-6.27344 16.42578,-6.27344 22.63281,-0.04297c6.27344,6.25 6.27344,16.38281 0.04297,22.63281l-74.66797,74.83985c-3.02734,3.02734 -7.125,4.71484 -11.36719,4.71484zm0,0"/>
  <path id="svg_3" d="m330.93359,170.98828c-8.83203,0 -16,-7.16797 -16,-16l0,-122.98828l-21.33593,0c-8.83203,0 -16,-7.16797 -16,-16s7.16797,-16 16,-16l37.33593,0c8.83204,0 16,7.16797 16,16l0,138.98828c0,8.83203 -7.16796,16 -16,16zm0,0"/>
  <path id="svg_4" d="m346.93359,427.54297l-53.33593,0c-8.83203,0 -16,-7.16797 -16,-16s7.16797,-16 16,-16l53.33593,0c2.94141,0 5.33204,-2.41406 5.33204,-5.39844l0,-26.7539l-37.33204,0c-20.58984,0 -37.33593,-16.76563 -37.33593,-37.375l0,-32.08594c0,-20.60547 16.74609,-37.375 37.33593,-37.375l32,0c20.58594,0 37.33204,16.76953 37.33204,37.375l0,96.21484c0,20.62891 -16.7461,37.39844 -37.33204,37.39844zm-32,-138.98828c-2.94531,0 -5.33593,2.41015 -5.33593,5.375l0,32.08594c0,2.96484 2.39062,5.375 5.33593,5.375l37.33204,0l0,-37.46094c0,-2.96485 -2.39063,-5.375 -5.33204,-5.375l-32,0zm0,0"/>
  <path id="svg_5" d="m368.26563,170.98828l-74.66797,0c-8.83203,0 -16,-7.16797 -16,-16s7.16797,-16 16,-16l74.66797,0c8.83203,0 16,7.16797 16,16s-7.16797,16 -16,16zm0,0"/>
 </g>
</svg>