<svg height="480pt" viewBox="-72 0 480 480" width="480pt" xmlns="http://www.w3.org/2000/svg"><path d="m168 184c-30.929688 0-56 25.070312-56 56s25.070312 56 56 56 56-25.070312 56-56c-.035156-30.914062-25.085938-55.964844-56-56zm0 96c-22.089844 0-40-17.910156-40-40s17.910156-40 40-40 40 17.910156 40 40c-.027344 22.082031-17.917969 39.972656-40 40zm0 0"/><path d="m168 40c-30.929688 0-56 25.070312-56 56s25.070312 56 56 56 56-25.070312 56-56c-.035156-30.914062-25.085938-55.964844-56-56zm0 96c-22.089844 0-40-17.910156-40-40s17.910156-40 40-40 40 17.910156 40 40c-.027344 22.082031-17.917969 39.972656-40 40zm0 0"/><path d="m168 328c-30.929688 0-56 25.070312-56 56s25.070312 56 56 56 56-25.070312 56-56c-.035156-30.914062-25.085938-55.964844-56-56zm0 96c-22.089844 0-40-17.910156-40-40s17.910156-40 40-40 40 17.910156 40 40c-.027344 22.082031-17.917969 39.972656-40 40zm0 0"/><path d="m293 160c3.3125.003906 6.28125-2.035156 7.472656-5.128906l35-91c.351563-.914063.527344-1.890625.527344-2.871094v-21c0-4.417969-3.582031-8-8-8h-56v-8c0-13.253906-10.746094-24-24-24h-160c-13.253906 0-24 10.746094-24 24v8h-56c-4.417969 0-8 3.582031-8 8v21c0 .980469.175781 1.957031.527344 2.871094l35 91c1.191406 3.09375 4.160156 5.132812 7.472656 5.128906h21v16h-56c-4.417969 0-8 3.582031-8 8v21c0 .980469.175781 1.957031.527344 2.871094l35 91c1.191406 3.09375 4.160156 5.132812 7.472656 5.128906h21v16h-56c-4.417969 0-8 3.582031-8 8v21c0 .980469.175781 1.957031.527344 2.871094l35 91c1.191406 3.09375 4.160156 5.132812 7.472656 5.128906h21v8c0 13.253906 10.746094 24 24 24h160c13.253906 0 24-10.746094 24-24v-8h21c3.3125.003906 6.28125-2.035156 7.472656-5.128906l35-91c.351563-.914063.527344-1.890625.527344-2.871094v-21c0-4.417969-3.582031-8-8-8h-56v-16h21c3.3125.003906 6.28125-2.035156 7.472656-5.128906l35-91c.351563-.914063.527344-1.890625.527344-2.871094v-21c0-4.417969-3.582031-8-8-8h-56v-16zm27-112v11.511719l-32.496094 84.488281h-15.503906v-96zm-271.503906 96-32.496094-84.488281v-11.511719h48v96zm0 144-32.496094-84.488281v-11.511719h48v96zm0 144-32.496094-84.488281v-11.511719h48v96zm207.503906 24c0 4.417969-3.582031 8-8 8h-160c-4.417969 0-8-3.582031-8-8v-432c0-4.417969 3.582031-8 8-8h160c4.417969 0 8 3.582031 8 8zm64-120v11.511719l-32.496094 84.488281h-15.503906v-96zm0-144v11.511719l-32.496094 84.488281h-15.503906v-96zm0 0"/></svg>