<svg height="512pt" viewBox="-70 0 512 512.001" width="512pt" xmlns="http://www.w3.org/2000/svg"><path d="m41.515625 80.285156c-5.527344 0-10.023437 4.496094-10.023437 10.019532v380.183593c0 5.523438 4.496093 10.019531 10.023437 10.019531h288.332031c5.527344 0 10.023438-4.496093 10.023438-10.019531v-380.183593c0-5.523438-4.496094-10.019532-10.023438-10.019532h-69.746094v-16.492187h75.417969c11.492188 0 20.84375 9.347656 20.84375 20.84375v179.21875c0 4.144531 3.355469 7.503906 7.5 7.503906 4.140625 0 7.5-3.359375 7.5-7.503906v-179.21875c0-19.765625-16.078125-35.84375-35.84375-35.84375h-77.425781c-2.65625-4.683594-7.675781-7.855469-13.433594-7.855469h-25.496094v-7.457031c0-18.460938-15.019531-33.480469-33.480468-33.480469-18.464844 0-33.484375 15.019531-33.484375 33.480469v7.460937h-25.496094c-5.753906 0-10.777344 3.167969-13.433594 7.851563h-77.425781c-19.765625 0-35.84375 16.078125-35.84375 35.84375v391.519531c0 19.765625 16.078125 35.84375 35.84375 35.84375h132.394531c4.144531 0 7.5-3.355469 7.5-7.5 0-4.140625-3.355469-7.5-7.5-7.5h-132.394531c-11.492188 0-20.84375-9.347656-20.84375-20.84375v-391.519531c0-11.496094 9.351562-20.84375 20.84375-20.84375h75.417969v16.492187zm283.355469 385.222656h-278.378906v-370.222656h65.027343c1.386719 7.363282 7.859375 12.617188 15.183594 12.617188h117.957031c7.46875 0 13.855469-5.429688 15.183594-12.617188h65.027344zm-157.667969-432.027343c0-10.1875 8.289063-18.480469 18.480469-18.480469 10.1875 0 18.476562 8.292969 18.476562 18.480469v7.460937h-36.957031zm-40.5 22.460937h117.957031c.222656 0 .429688.207032.4375.425782 0 .054687 0 .105468.003906.160156v35.933594c0 .226562-.214843.441406-.4375.441406h-117.960937c-.226563 0-.441406-.214844-.441406-.441406 0-13.300782 0-14.828126 0-35.898438 0-.007812.003906-.011719.003906-.019531 0-.019531-.003906-.039063-.003906-.054688v-.109375c0-.226562.214843-.4375.441406-.4375zm0 0"/><path d="m89.023438 372.925781c-12.816407 0-23.246094 10.425781-23.246094 23.246094 0 10.191406 6.597656 18.867187 15.742187 21.996094v10.96875c0 4.140625 3.359375 7.5 7.503907 7.5 4.140624 0 7.5-3.359375 7.5-7.5v-10.96875c9.144531-3.125 15.746093-11.800781 15.746093-21.996094 0-12.820313-10.429687-23.246094-23.246093-23.246094zm0 31.492188c-4.546876 0-8.246094-3.699219-8.246094-8.246094s3.699218-8.246094 8.246094-8.246094c4.542968 0 8.242187 3.699219 8.242187 8.246094s-3.699219 8.246094-8.242187 8.246094zm0 0"/><path d="m241.699219 167.367188-10.640625 17.902343c-1.707032 2.871094-1.261719 6.566407.960937 8.945313l24.378907 26.144531c5.742187 6.160156 15.527343 6.160156 21.273437.003906l24.378906-26.148437c2.234375-2.394532 2.660157-6.089844.960938-8.945313l-10.640625-17.902343c-2.605469-4.386719-7.398438-7.113282-12.5-7.113282h-25.671875c-5.101563 0-9.890625 2.726563-12.5 7.113282zm25.335937 42.402343-12.277344-13.167969h24.558594zm12.574219-34.511719 3.769531 6.34375h-32.6875l3.769532-6.34375zm0 0"/><path d="m159.816406 147.964844h51.730469c4.140625 0 7.5-3.359375 7.5-7.5 0-4.144532-3.359375-7.5-7.5-7.5h-51.730469c-4.140625 0-7.5 3.355468-7.5 7.5 0 4.140625 3.359375 7.5 7.5 7.5zm0 0"/><path d="m149.320312 81.921875h72.839844c4.144532 0 7.5-3.359375 7.5-7.5 0-4.144531-3.355468-7.5-7.5-7.5h-72.839844c-4.140624 0-7.5 3.355469-7.5 7.5 0 4.140625 3.359376 7.5 7.5 7.5zm0 0"/><path d="m272.339844 232.765625c-2.929688-2.925781-7.679688-2.925781-10.609375 0l-18.925781 18.929687c-2.929688 2.929688-2.929688 7.679688 0 10.605469 2.929687 2.929688 7.679687 2.929688 10.605468 0l6.125-6.121093v10.109374c0 10.414063-8.472656 18.882813-18.882812 18.882813h-100.496094c-18.679688 0-33.878906 15.199219-33.878906 33.882813v15.46875c0 18.683593 15.199218 33.882812 33.878906 33.882812h100.496094c10.410156 0 18.882812 8.46875 18.882812 18.878906v15.46875c0 10.414063-8.472656 18.882813-18.882812 18.882813h-120.578125c-4.144531 0-7.5 3.355469-7.5 7.5 0 4.140625 3.355469 7.5 7.5 7.5h120.578125c18.683594 0 33.882812-15.199219 33.882812-33.882813v-15.46875c0-18.683594-15.199218-33.882812-33.882812-33.882812h-100.496094c-10.410156 0-18.878906-8.46875-18.878906-18.878906v-15.46875c0-10.410157 8.46875-18.882813 18.878906-18.882813h100.496094c18.683594 0 33.882812-15.199219 33.882812-33.882813v-10.113281l6.125 6.125c2.929688 2.929688 7.675782 2.929688 10.605469 0 2.929687-2.929687 2.929687-7.679687 0-10.605469zm0 0"/><path d="m203.242188 512h132.277343c19.765625 0 35.84375-16.078125 35.84375-35.84375v-177.296875c0-4.140625-3.355469-7.5-7.5-7.5s-7.5 3.359375-7.5 7.5v177.296875c0 11.492188-9.351562 20.84375-20.84375 20.84375h-132.277343c-4.144532 0-7.5 3.355469-7.5 7.5 0 4.140625 3.355468 7.5 7.5 7.5zm0 0"/></svg>