<svg width="46" height="58" xmlns="http://www.w3.org/2000/svg">

 <g>
  <title>background</title>
  <rect fill="none" id="canvas_background" height="402" width="582" y="-1" x="-1"/>
 </g>
 <g>
  <title>Layer 1</title>
  <path d="m44,0l-42,0c-1.104569,0 -2,0.895431 -2,2l0,54c0,1.104569 0.895431,2 2,2l42,0c1.104569,0 2,-0.895431 2,-2l0,-54c0,-1.104569 -0.895431,-2 -2,-2zm-5.35,17.09l-3.65,-0.6l0,35.51c0,0.552285 -0.447715,1 -1,1l-6,0c-0.552285,0 -1,-0.447715 -1,-1l0,-11c0,-6 -11,-6.33 -11,-6.33c-0.06,0.46 0,-0.11 -0.44,3.57c-0.067437,0.466839 -0.408608,0.847528 -0.865295,0.965524c-0.456688,0.117996 -0.939567,-0.049781 -1.224705,-0.425524l-8.18,-11c-0.113596,-0.144676 -0.150392,-0.33528 -0.098811,-0.511844c0.05158,-0.176563 0.185196,-0.317384 0.358811,-0.378156l12.9,-4.77c0.444866,-0.157701 0.940922,-0.032655 1.257873,0.317084c0.316951,0.349739 0.392719,0.855671 0.192127,1.282916l-1.64,3.28s3.74,-1 8.74,2l0,-12.51l-3.55,0.6c-0.468075,0.071944 -0.933357,-0.145372 -1.178616,-0.550487c-0.245258,-0.405114 -0.222119,-0.918124 0.058616,-1.299513l8.26,-11c0.10465,-0.150729 0.276504,-0.240626 0.46,-0.240626s0.35535,0.089897 0.46,0.240626l8.26,11c0.280735,0.381389 0.303875,0.894399 0.058616,1.299513c-0.245259,0.405115 -0.710541,0.622431 -1.178616,0.550487z" id="Shape"/>
  <path id="svg_5" d="m31.416553,50.075237c1.333315,-12.666496 -2.333302,-15.499791 -6.166583,-16.833106c-3.833282,-1.333315 -12.83316,-3.666617 -12.916803,-3.742529" fill-opacity="null" stroke-opacity="null" stroke-width="3" stroke="#ff0000" fill="none"/>
  <path transform="rotate(61.1263542175293 13.08056926727295,29.532632827758786) " id="svg_6" d="m12.163916,30.449287l0,-1.833308l1.833308,1.833308l-1.833308,0z" fill-opacity="null" stroke-opacity="null" stroke-width="3" stroke="#ff0000" fill="none"/>
 </g>
</svg>