<svg width="512" height="512" xmlns="http://www.w3.org/2000/svg">

 <g>
  <title>background</title>
  <rect fill="none" id="canvas_background" height="402" width="582" y="-1" x="-1"/>
 </g>
 <g>
  <title>Layer 1</title>
  <g id="svg_1">
   <g id="svg_2">
    <g id="svg_3">
     <path id="svg_4" fill="#60a4ff" d="m502,39.000002l0,432c0,16.57 -13.43,30 -30,30l-432,0c-16.57,0 -30,-13.43 -30,-30l0,-432c0,-16.57 13.43,-30 30,-30l432,0c16.57,0 30,13.43 30,30z"/>
    </g>
    <path id="svg_5" fill="#eefaff" d="m406,259.580002l0,175.42l-60,0l0,-124.58l-120,-20.01l0,144.59l-60,0l0,-270l-30,0l60,-90l60,90l-30,0l0,64.59l180,29.99z"/>
   </g>
   <g id="svg_6">
    <path id="svg_7" d="m166,445.000002l60,0c5.523,0 10,-4.478 10,-10l0,-132.784l100,16.675l0,116.109c0,5.522 4.478,10 10,10l60,0c5.522,0 10,-4.478 10,-10l0,-175.42c0,-4.889 -3.534,-9.061 -8.356,-9.864l-171.644,-28.598l0,-46.118l20,0c3.687,0 7.076,-2.03 8.816,-5.281c1.74,-3.252 1.55,-7.197 -0.496,-10.266l-60,-90c-1.854,-2.782 -4.977,-4.453 -8.32,-4.453s-6.466,1.671 -8.32,4.453l-60,90c-2.046,3.068 -2.237,7.014 -0.497,10.266c1.74,3.251 5.129,5.281 8.817,5.281l20,0l0,260c0,5.522 4.477,10 10,10zm-11.315,-290l41.315,-61.973l41.315,61.973l-11.315,0c-5.523,0 -10,4.478 -10,10l0,64.59c0,4.889 3.535,9.061 8.356,9.864l171.644,28.598l0,156.948l-40,0l0,-114.58c0,-4.888 -3.534,-9.06 -8.355,-9.864l-120,-20.01c-6.121,-1.015 -11.645,3.71 -11.645,9.864l0,134.59l-40,0l0,-260c0,-5.522 -4.477,-10 -10,-10l-11.315,0z"/>
    <circle id="svg_8" r="10" cy="501.000002" cx="256"/>
    <path id="svg_9" d="m472,-0.999998l-432,0c-22.056,0 -40,17.944 -40,40l0,432c0,22.056 17.944,40 40,40l171,0c5.523,0 10,-4.478 10,-10s-4.477,-10 -10,-10l-171,0c-11.028,0 -20,-8.972 -20,-20l0,-432c0,-11.028 8.972,-20 20,-20l432,0c11.028,0 20,8.972 20,20l0,432c0,11.028 -8.972,20 -20,20l-171,0c-5.522,0 -10,4.478 -10,10s4.478,10 10,10l171,0c22.056,0 40,-17.944 40,-40l0,-432c0,-22.056 -17.944,-40 -40,-40z"/>
   </g>
  </g>
  <line stroke-linecap="undefined" stroke-linejoin="undefined" id="svg_10" y2="343.99918" x2="277.499949" y1="208.999502" x1="380.499703" stroke-width="29.5" stroke="#ff0000" fill="none"/>
  <line stroke="#ff0000" stroke-linecap="undefined" stroke-linejoin="undefined" id="svg_11" y2="343.99918" x2="383.499693" y1="208.999502" x1="281.499938" stroke-width="29.5" fill="none"/>
 </g>
</svg>