<svg height="512" viewBox="0 0 58 59" width="512" xmlns="http://www.w3.org/2000/svg"><g id="Page-1" fill="none" fill-rule="evenodd"><g id="019---Road-Map" fill-rule="nonzero"><path id="Shape" d="m48.88 34.88c-.8568812.8579473-1.1130328 2.1473683-.6491479 3.2676941.4638849 1.1203257 1.5565813 1.8512394 2.7691479 1.8523059h6c.5522847 0 1 .4477153 1 1v10c0 .5522847-.4477153 1-1 1h-1c-1.6568542 0-3 1.3431458-3 3v3c0 .5522847-.4477153 1-1 1h-4c-.5522847 0-1-.4477153-1-1v-3c0-1.6568542-1.3431458-3-3-3h-43c-.55228475 0-1-.4477153-1-1v-10c0-.5522847.44771525-1 1-1h6c1.65685425 0 3-1.3431458 3-3s-1.34314575-3-3-3h-6c-.55228475 0-1-.4477153-1-1v-10c0-.5522847.44771525-1 1-1h1c1.65685425 0 3-1.3431458 3-3v-3c0-.5522847.44771525-1 1-1h4c.5522847 0 1 .4477153 1 1v3c0 1.6568542 1.3431458 3 3 3h3.39c.7056857 1.9789073 1.6279527 3.8737466 2.75 5.65.1.17.22.33.33.5 1.4159754 2.1279258 3.0663048 4.0902077 4.92 5.85h-6.39c-1.6568542 0-3 1.3431458-3 3s1.3431458 3 3 3h20c1.6568542 0 3-1.3431458 3-3s-1.3431458-3-3-3h-6.39c1.8536952-1.7597923 3.5040246-3.7220742 4.92-5.85.11-.17.23-.33.33-.5 1.1220473-1.7762534 2.0443143-3.6710927 2.75-5.65h16.39c.5522847 0 1 .4477153 1 1v10c0 .5522847-.4477153 1-1 1h-6c-.7953814.0007002-1.5579306.3172301-2.12.88z" fill="#95a5a5"/><g fill="#f3d55b"><path id="Shape" d="m9 47h-5c-.55228475 0-1-.4477153-1-1s.44771525-1 1-1h5c.55228475 0 1 .4477153 1 1s-.44771525 1-1 1z"/><path id="Shape" d="m18 47h-5c-.5522847 0-1-.4477153-1-1s.4477153-1 1-1h5c.5522847 0 1 .4477153 1 1s-.4477153 1-1 1z"/><path id="Shape" d="m27 47h-5c-.5522847 0-1-.4477153-1-1s.4477153-1 1-1h5c.5522847 0 1 .4477153 1 1s-.4477153 1-1 1z"/><path id="Shape" d="m36 47h-5c-.5522847 0-1-.4477153-1-1s.4477153-1 1-1h5c.5522847 0 1 .4477153 1 1s-.4477153 1-1 1z"/><path id="Shape" d="m45 47h-5c-.5522847 0-1-.4477153-1-1s.4477153-1 1-1h5c.5522847 0 1 .4477153 1 1s-.4477153 1-1 1z"/><path id="Shape" d="m54 47h-5c-.5522847 0-1-.4477153-1-1s.4477153-1 1-1h5c.5522847 0 1 .4477153 1 1s-.4477153 1-1 1z"/><path id="Shape" d="m9 29h-5c-.55228475 0-1-.4477153-1-1s.44771525-1 1-1h5c.55228475 0 1 .4477153 1 1s-.44771525 1-1 1z"/><path id="Shape" d="m16 29h-3c-.5522847 0-1-.4477153-1-1s.4477153-1 1-1h3c.5522847 0 1 .4477153 1 1s-.4477153 1-1 1z"/><path id="Shape" d="m45 29h-3c-.5522847 0-1-.4477153-1-1s.4477153-1 1-1h3c.5522847 0 1 .4477153 1 1s-.4477153 1-1 1z"/><path id="Shape" d="m54 29h-5c-.5522847 0-1-.4477153-1-1s.4477153-1 1-1h5c.5522847 0 1 .4477153 1 1s-.4477153 1-1 1z"/></g><path id="Shape" d="m42 13.92c-.0033188 2.7525376-.4733128 5.4845889-1.39 8.08-.7056857 1.9789073-1.6279527 3.8737466-2.75 5.65-.1.17-.22.33-.33.5-1.4159754 2.1279258-3.0663048 4.0902077-4.92 5.85-1.11892 1.0974248-2.3263358 2.1008174-3.61 3-1.2836642-.8991826-2.49108-1.9025752-3.61-3-1.8536952-1.7597923-3.5040246-3.7220742-4.92-5.85-.11-.17-.23-.33-.33-.5-1.1220473-1.7762534-2.0443143-3.6710927-2.75-5.65-.9166872-2.5954111-1.3866812-5.3274624-1.39-8.08-.0036982-1.8289624.3886216-3.6370448 1.15-5.3 2.1018195-4.65909598 6.7387555-7.65420726 11.85-7.65420726s9.7481805 2.99511128 11.85 7.65420726c.7613784 1.6629552 1.1536982 3.4710376 1.15 5.3z" fill="#e64c3c"/><circle id="Oval" cx="29" cy="14" fill="#f9eab0" r="9"/><path id="Shape" d="m29 24c-5.5228475 0-10-4.4771525-10-10s4.4771525-10 10-10 10 4.4771525 10 10-4.4771525 10-10 10zm0-18c-4.418278 0-8 3.581722-8 8s3.581722 8 8 8 8-3.581722 8-8c0-2.1217319-.8428547-4.15656322-2.3431458-5.65685425-1.500291-1.50029103-3.5351223-2.34314575-5.6568542-2.34314575z" fill="#c03a2b"/></g></g></svg>