<svg viewBox="0 -48 512 511" xmlns="http://www.w3.org/2000/svg"><path d="m446.441406 408.78125h-380.882812c-6.707032 0-11.519532-6.492188-9.558594-12.910156l75.191406-246.621094 18.089844-59.339844 22.820312-74.828125c1.277344-4.210937 5.167969-7.082031 9.570313-7.082031h148.65625c4.402344 0 8.292969 2.871094 9.570313 7.082031l22.820312 74.828125 18.089844 59.339844 75.191406 246.621094c1.960938 6.417968-2.851562 12.910156-9.558594 12.910156zm0 0" fill="#53f4a0"/><path d="m139.886719 120.722656-8.695313 28.527344h249.617188l-8.695313-28.527344zm0 0" fill="#3ad391"/><path d="m403.488281 408.78125h-294.976562l79.566406-400.78125h135.84375zm0 0" fill="#3ad391"/><path d="m391.25 408.78125h-270.5l79.558594-400.78125h111.382812zm0 0" fill="#1a94af"/><path d="m282.6875 408.78125h-53.375l15.699219-400.78125h21.976562zm0 0" fill="#f0fffc"/><path d="m476.550781 134.421875v48.277344h-60.589843l-10.5-33.449219-4.652344-14.828125zm0 0" fill="#abddd4"/><path d="m476.550781 134.421875v14.828125h-71.089843l-4.652344-14.828125zm0 0" fill="#83b2a9"/><path d="m111.191406 134.421875-4.652344 14.828125-10.5 33.449219h-60.589843v-48.277344zm0 0" fill="#abddd4"/><path d="m35.449219 134.421875h75.742187l-4.652344 14.828125h-71.089843zm0 0" fill="#83b2a9"/><path d="m494.5 137.253906h-477c-5.523438 0-10-4.476562-10-10v-15.34375c0-5.523437 4.476562-10 10-10h477c5.523438 0 10 4.476563 10 10v15.34375c0 5.523438-4.476562 10-10 10zm0 0" fill="#f0fffc"/><path d="m494.5 94.410156h-122.570312l-24.855469-81.515625c-2.261719-7.414062-8.988281-12.394531-16.738281-12.394531h-148.671876c-7.75 0-14.476562 4.980469-16.738281 12.394531l-6.449219 21.152344c-1.207031 3.964844 1.023438 8.152344 4.984376 9.363281 3.960937 1.207032 8.152343-1.023437 9.363281-4.988281l6.449219-21.152344c.324218-1.058593 1.285156-1.769531 2.390624-1.769531h9.507813l-15.664063 78.910156h-19.753906l7.828125-25.675781c1.207031-3.960937-1.023437-8.152344-4.984375-9.359375-3.960937-1.207031-8.15625 1.023438-9.363281 4.984375l-9.164063 30.050781h-122.570312c-9.648438 0-17.5 7.851563-17.5 17.5v15.347656c0 9.648438 7.851562 17.5 17.5 17.5h10.453125v37.941407c0 4.144531 3.355469 7.5 7.5 7.5h60.589844c3.277343 0 6.175781-2.128907 7.15625-5.253907l12.609375-40.1875h8.914062l-75.898437 248.921876c-1.632813 5.359374-.660157 11.015624 2.675781 15.519531 3.332031 4.5 8.460938 7.082031 14.0625 7.082031h98.28125c4.140625 0 7.5-3.355469 7.5-7.5 0-4.140625-3.359375-7.5-7.5-7.5h-33.960938l50.921876-256.523438h51.339843l-10.046875 256.523438h-27.945312c-4.140625 0-7.5 3.359375-7.5 7.5 0 4.144531 3.359375 7.5 7.5 7.5h252.285156c5.601562 0 10.726562-2.582031 14.0625-7.082031 3.335938-4.503907 4.308594-10.160157 2.675781-15.519531l-75.898437-248.921876h8.914062l12.609375 40.1875c.980469 3.125 3.878907 5.253907 7.152344 5.253907h60.59375c4.144531 0 7.5-3.355469 7.5-7.5v-37.941407h10.453125c9.648438 0 17.5-7.851562 17.5-17.5v-15.347656c0-9.648437-7.851562-17.5-17.5-17.5zm-161.773438-77.140625 23.519532 77.140625h-19.753906l-15.664063-78.910156h9.507813c1.105468 0 2.066406.710938 2.390624 1.769531zm-72.949218-1.769531 3.089844 78.910156h-13.734376l3.089844-78.910156zm-53.3125 0h30.746094l-3.089844 78.910156h-43.320313zm-115.929688 159.699219h-47.582031v-30.445313h57.136719zm24.058594 226.082031h-49.03125c-1.09375 0-1.726562-.632812-2.007812-1.011719-.28125-.375-.703126-1.167969-.382813-2.214843l77.230469-253.296876h25.113281zm132.566406-256.527344h17.679688l10.050781 256.527344h-37.78125zm84.03125 0 50.921875 256.527344h-92.210937l-10.050782-256.527344zm117.636719 253.300782c.320313 1.046874-.101563 1.839843-.382813 2.214843-.28125.378907-.914062 1.011719-2.007812 1.011719h-49.03125l-50.921875-256.523438h25.113281zm20.21875-222.855469h-47.582031l-9.554688-30.445313h57.136719zm27.953125-47.945313c0 1.378906-1.121094 2.5-2.5 2.5h-477c-1.378906 0-2.5-1.121094-2.5-2.5v-15.34375c0-1.378906 1.121094-2.5 2.5-2.5h264.34375c4.144531 0 7.5-3.359375 7.5-7.5 0-4.144531-3.355469-7.5-7.5-7.5h-3.960938l-3.09375-78.910156h30.746094l15.664063 78.910156h-9.042969c-4.144531 0-7.5 3.355469-7.5 7.5 0 4.140625 3.355469 7.5 7.5 7.5h182.34375c1.378906 0 2.5 1.121094 2.5 2.5zm0 0"/></svg>