<?xml version="1.0" encoding="iso-8859-1"?>
<!-- Generator: Adobe Illustrator 19.0.0, SVG Export Plug-In . SVG Version: 6.00 Build 0)  -->
<svg version="1.1" id="Capa_1" xmlns="http://www.w3.org/2000/svg" xmlns:xlink="http://www.w3.org/1999/xlink" x="0px" y="0px"
	 viewBox="0 0 436.905 436.905" style="enable-background:new 0 0 436.905 436.905;" xml:space="preserve">
<polygon style="fill:#777777;" points="430.08,167.252 409.6,105.812 285.04,105.812 266.24,10.239 170.667,10.239 151.866,105.812 
	27.306,105.812 6.826,167.252 139.779,167.252 88.746,426.666 348.16,426.666 297.127,167.252 "/>
<path d="M348.16,433.492H88.746c-2.041,0-3.977-0.915-5.274-2.488s-1.819-3.649-1.423-5.652l49.432-251.273H6.826
	c-2.195,0-4.253-1.055-5.536-2.836c-1.283-1.778-1.635-4.065-0.939-6.151l20.48-61.44c0.928-2.785,3.536-4.666,6.475-4.666h118.948
	L163.97,8.922c0.628-3.202,3.434-5.509,6.697-5.509h95.573c3.263,0,6.069,2.307,6.697,5.509l17.715,90.064H409.6
	c2.939,0,5.547,1.881,6.475,4.666l20.48,61.44c0.693,2.082,0.345,4.369-0.939,6.151c-1.283,1.782-3.342,2.836-5.536,2.836H305.425
	l49.428,251.269c0.396,2.004-0.126,4.076-1.423,5.652C352.133,432.578,350.201,433.492,348.16,433.492z M97.048,419.839h242.814
	L290.43,168.57c-0.396-2.004,0.126-4.076,1.423-5.652s3.232-2.492,5.274-2.492h123.484l-15.93-47.787H285.04
	c-3.263,0-6.069-2.307-6.697-5.509l-17.719-90.064h-84.343l-17.715,90.064c-0.628,3.202-3.437,5.509-6.7,5.509H32.225l-15.93,47.787
	h123.484c2.041,0,3.977,0.915,5.274,2.488c1.297,1.574,1.819,3.649,1.423,5.652L97.048,419.839z"/>
<g>
	<path style="fill:#FFFFFF;" d="M136.533,139.946h-40.96v-13.653h40.96V139.946z M81.92,139.946H40.96v-13.653h40.96V139.946z"/>
	<path style="fill:#FFFFFF;" d="M395.947,139.946h-40.96v-13.653h40.96V139.946z M341.333,139.946h-40.96v-13.653h40.96V139.946z"/>
	<path style="fill:#FFFFFF;" d="M225.28,419.839h-13.653v-40.96h13.653V419.839z M225.28,365.226h-13.653v-40.96h13.653V365.226z
		 M225.28,310.612h-13.653v-40.96h13.653V310.612z M225.28,255.999h-13.653v-40.96h13.653V255.999z M225.28,201.386h-13.653v-40.96
		h13.653V201.386z M225.28,146.772h-13.653v-40.96h13.653V146.772z M225.28,92.159h-13.653v-40.96h13.653V92.159z M225.28,37.546
		h-13.653v-20.48h13.653V37.546z"/>
</g>
<g>
</g>
<g>
</g>
<g>
</g>
<g>
</g>
<g>
</g>
<g>
</g>
<g>
</g>
<g>
</g>
<g>
</g>
<g>
</g>
<g>
</g>
<g>
</g>
<g>
</g>
<g>
</g>
<g>
</g>
</svg>
