<?xml version="1.0" encoding="iso-8859-1"?>
<!-- Generator: Adobe Illustrator 19.0.0, SVG Export Plug-In . SVG Version: 6.00 Build 0)  -->
<svg version="1.1" id="Capa_1" xmlns="http://www.w3.org/2000/svg" xmlns:xlink="http://www.w3.org/1999/xlink" x="0px" y="0px"
	 viewBox="0 0 509.287 509.287" style="enable-background:new 0 0 509.287 509.287;" xml:space="preserve">
<path style="fill:#29B36F;" d="M1.017,230.23C0.339,238.368,0,246.167,0,254.644c0,140.715,113.928,254.644,254.644,254.644
	s254.644-113.928,254.644-254.644c0-8.138-0.339-16.276-1.017-24.413L1.017,230.23L1.017,230.23z"/>
<path style="fill:#886C60;" d="M254.305,0C121.727,0,13.224,101.044,1.017,230.23h506.914C495.385,101.044,386.882,0,254.305,0z"/>
<path style="fill:#393D47;" d="M254.305,106.469L254.305,106.469c-49.844,0-89.854,40.35-89.854,89.854v33.907h179.709v-33.907
	C344.159,146.819,304.148,106.469,254.305,106.469z"/>
<path style="fill:#4F5565;" d="M254.305,509.287c82.734,0,155.974-39.332,202.426-100.366L344.159,230.23H164.45L51.878,408.922
	C98.331,469.955,171.571,509.287,254.305,509.287z"/>
<g>
	<polygon style="fill:#FBD303;" points="262.781,317.711 260.747,268.885 247.862,268.885 245.828,317.711 	"/>
	<polygon style="fill:#FBD303;" points="266.172,409.6 263.121,334.326 245.489,334.326 242.437,409.6 	"/>
	<path style="fill:#FBD303;" d="M241.759,433.674l-2.713,74.935c5.086,0.339,10.172,0.339,15.258,0.339
		c5.086,0,10.172-0.339,15.258-0.339l-2.713-74.935L241.759,433.674L241.759,433.674z"/>
	<polygon style="fill:#FBD303;" points="260.408,259.052 259.391,230.23 249.219,230.23 248.201,259.052 	"/>
</g>
<g>
</g>
<g>
</g>
<g>
</g>
<g>
</g>
<g>
</g>
<g>
</g>
<g>
</g>
<g>
</g>
<g>
</g>
<g>
</g>
<g>
</g>
<g>
</g>
<g>
</g>
<g>
</g>
<g>
</g>
</svg>
